# Wavefront OBJ
# Created by fragMOTION 1.3.7
# http://www.fragmosoft.com

mtllib cube_floor1.mtl
# 64 vertices
v 1 1.05892 -0.97
v 0.97 1.02892 -0.97
v 0.97 1.05892 -1
v 1 1.05892 0.97
v 0.97 1.05892 1
v 0.97 1.02892 0.97
v -0.97 1.05892 1
v -1 1.05892 0.97
v -0.97 1.02892 0.97
v -0.97 1.05892 -1
v -0.97 1.02892 -0.97
v -1 1.05892 -0.97
v 0.970001 1.03 -0.980339
v 0.98 1.03 -0.969999
v 0.979999 1.03 0.970001
v 0.969999 1.03 0.980001
v -0.97 1.03 0.98
v -0.98 1.03 0.97
v -0.98 1.03 -0.97
v -0.97 1.03 -0.980339
v 1 1.0835 -0.969999
v 0.970001 1.0835 -0.999999
v 0.970001 1.1135 -0.969999
v 0.999999 1.0835 0.970001
v 0.969999 1.1135 0.970001
v 0.969999 1.0835 1
v -0.97 1.0835 -1
v -1 1.0835 -0.97
v -0.97 1.1135 -0.97
v -0.97 1.0835 1
v -0.97 1.1135 0.97
v -1 1.0835 0.97
v 0.976149 1.03 -0.977196
v 0.974864 1.03 0.975001
v -0.972209 1.03 0.975
v -0.975 1.03 -0.97287
v 0.985 1.0835 -0.984999
v 0.984999 1.0835 0.985001
v -0.985 1.0835 -0.985
v -0.985 1.0835 0.985
v 0.98 1.03 5.36442e-007
v 2.98023e-007 1.03 -0.980339
v -5.36442e-007 1.03 0.98
v -0.98 1.03 -1.78814e-007
v 1 1.0835 5.96046e-007
v 2.38419e-007 1.0835 -1
v -4.76837e-007 1.0835 1
v -1 1.0835 -1.78814e-007
v 0.999999 1.05675 0.970001
v 0.969999 1.05675 1
v -1 1.05675 0.97
v -0.97 1.05675 1
v 0.970001 1.05675 -0.999999
v 1 1.05675 -0.969999
v -0.97 1.05675 -1
v -1 1.05675 -0.97
v -0.985 1.05675 -0.985
v 0.985 1.05675 -0.984999
v -0.985 1.05675 0.985
v 0.984999 1.05675 0.985001
v -5.06639e-007 1.05675 1
v 2.68221e-007 1.05675 -1
v 1 1.05675 5.66244e-007
v -1 1.05675 -1.78814e-007
# 100 texture vertices
vt 0.162479 -0.485801
vt 0 -0.492213
vt 0 -0.485801
vt 0.162479 -0.492213
vt 0.670017 -0.492806
vt 0.994975 -0.026311
vt 0.994975 -0.492806
vt 0.670017 -0.026311
vt 0.502513 -0.985821
vt 0.340034 -0.992233
vt 0.340034 -0.985821
vt 0.502513 -0.992233
vt 0.167504 -0.985829
vt 0.005025 -0.992241
vt 0.005025 -0.985829
vt 0.167504 -0.992242
vt 0.670017 -0.533504
vt 0.994975 -1
vt 0.670017 -1
vt 0.994975 -0.533504
vt 0.502513 -0.014219
vt 0.664992 -0.00780702
vt 0.664992 -0.01422
vt 0.502513 -0.00780702
vt 0.670017 -0.50002
vt 0.664992 -0.492806
vt 0.994975 -0.50002
vt 1 -0.492806
vt 1 -0.026311
vt 0.994975 -0.019097
vt 0.664992 -0.026311
vt 0.670017 -0.019097
vt 0.335008 -0.992809
vt 0.337521 -0.992521
vt 0.340034 -1
vt 0.664992 -0.992233
vt 0.670017 -0.992809
vt 0.664992 -1
vt 0.667504 -0.992521
vt 0.329983 -0.492789
vt 0.324958 -0.492213
vt 0.327471 -0.492501
vt 0.324958 -0.49998
vt 0.340034 -0.00780702
vt 0.335008 -0.007231
vt 0.340034 -4.1008e-005
vt 0.337521 -0.00751901
vt 0.329983 -1
vt 0.329983 -0.992242
vt 0.005025 -1
vt 0.664992 -4.1008e-005
vt 0 -0.499979
vt 0.667504 -0.986109
vt 0.670017 -0.986397
vt 0.331229 -0.493604
vt 0.333119 -0.499224
vt 0.332466 -0.49998
vt 0.333119 -0.491209
vt 0.332496 -0.986112
vt 0.332496 -0.992525
vt 0.335008 -0.986396
vt 0.002513 -0.986112
vt 0.00335 -0.979983
vt 0.004188 -0.979929
vt 0 -0.986396
vt 0.002513 -0.992525
vt 0 -0.992808
vt 0.329983 -0.486377
vt 0.325439 -0.479869
vt 0.32669 -0.479965
vt 0.327471 -0.486089
vt 0.338828 -0.979867
vt 0.337521 -0.986109
vt 0.340034 -0.979793
vt 0.329983 -0.979788
vt 0.329983 -0.985829
vt 0.331013 -0.979847
vt 0.340034 -0.014219
vt 0.337521 -0.013932
vt 0.335008 -0.013644
vt 0.339664 -0.020152
vt 0.338358 -0.020056
vt 0.665829 -0.979892
vt 0.666667 -0.979985
vt 0.335008 -0.499162
vt 0.333119 -0.493541
vt 0.335008 -0.491147
vt 0.33436 -0.49998
vt 0.664992 -0.985821
vt 0.340034 -0.020248
vt 0.502513 -0.020248
vt 0.664992 -0.020248
vt 0.167504 -0.979788
vt 0.005025 -0.979787
vt 0.664992 -0.979793
vt 0.502513 -0.979793
vt 0.324958 -0.485801
vt 0.324958 -0.479773
vt 0.162479 -0.479773
vt 0 -0.479773
# 84 normals
vn -0.948923 -0.315506 -2.05158e-007
vn -0.92388 0.382683 -2.21204e-007
vn -0.908394 -0.418115 -2.23276e-007
vn -0.95232 0.305101 -1.98185e-007
vn 0.244078 -0.892863 -0.378446
vn -0.244078 -0.892863 0.378446
vn 0.453374 -0.841993 0.292403
vn -0.453374 -0.841993 -0.292403
vn 0.948923 -0.315506 5.55015e-007
vn 0.890816 0.444466 0.0943251
vn 0.857633 -0.462881 -0.224068
vn 0.95232 0.305101 5.49295e-007
vn 2.61701e-007 -0.311619 -0.950207
vn -0.320377 0.160189 -0.933648
vn -0.196749 -0.329557 -0.923408
vn 2.6101e-007 0.382684 -0.92388
vn 0 1 0
vn -4.66476e-007 -0.315506 0.948923
vn -4.54165e-007 0.382683 0.92388
vn -4.46553e-007 -0.418115 0.908394
vn -4.68146e-007 0.305102 0.95232
vn 0.692703 -0.692703 -0.200813
vn 0.302906 -0.673887 -0.673887
vn 0.673887 -0.673887 0.302905
vn 0.200813 -0.692703 0.692703
vn -0.302905 -0.673887 0.673887
vn -0.692703 -0.692703 0.200813
vn -0.200813 -0.692703 -0.692703
vn -0.673887 -0.673887 -0.302906
vn 0.627963 0.627963 0.459701
vn 0 0 1
vn 0.673887 0.673887 -0.302905
vn 0.75218 0.322956 0.57439
vn 0.547143 0.158616 0.821873
vn 0.699152 0.699152 0.149576
vn 0.562097 0 0.827072
vn -0.627963 0.627963 0.459701
vn -0.860547 0.48385 0.159211
vn -0.699152 0.699152 -0.149576
vn -0.29289 0.29289 0.910182
vn -0.547143 0.158616 0.821873
vn -0.149576 0.699152 0.699152
vn -0.562097 0 0.827072
vn 2.06389e-007 0.707107 -0.707107
vn 0.270598 0.270598 -0.92388
vn -3.47603e-007 0.707107 0.707107
vn -0.707107 0.707107 -1.52076e-007
vn 0.701986 -0.120129 0.701986
vn 0.673106 -0.318992 0.667212
vn -0.716213 -0.493774 0.493179
vn -0.788387 -0.507147 0.348207
vn -0.625129 -0.467363 0.625129
vn 0.65365 -0.173373 -0.73667
vn 0.707107 0 -0.707107
vn -0.658758 -0.200843 -0.725052
vn -0.531568 -0.487674 -0.692538
vn -0.430719 -0.501299 -0.750453
vn -0.698001 -0.159963 -0.698001
vn -0.707107 0 -0.707107
vn -0.694165 -0.444473 -0.566196
vn -0.769213 -0.378415 -0.514892
vn -0.610351 -0.504919 -0.610351
vn 0.699895 -0.482324 -0.526793
vn 0.647166 -0.402929 -0.647166
vn 0.784548 -0.586549 -0.201109
vn 0.274598 -0.530356 -0.802072
vn 0.380601 -0.196361 -0.903651
vn 0.421123 -0.379642 -0.823728
vn -0.315238 -0.133473 0.93958
vn -0.70086 -0.132624 0.70086
vn -0.623397 -0.306078 0.719509
vn -0.557548 -0.448688 0.698441
vn -0.500793 -0.374407 0.780401
vn 0.629901 -0.466074 0.62129
vn 0.635564 -0.462289 0.618342
vn 0.62049 -0.468573 0.628833
vn 0.625129 -0.467363 0.625129
vn 0.615828 -0.469766 0.632515
vn 0.93958 -0.133473 0.315238
vn -3.93716e-007 -0.598783 0.800911
vn 2.14561e-007 -0.592205 -0.805787
vn 0.800911 -0.598783 4.4293e-007
vn -0.977903 -0.209058 -1.80271e-007
vn -0.800911 -0.598783 -1.47643e-007
usemtl Materialgras
g Group
s off
f 64/1/1 51/3/3 32/2/2
f 64/1/1 32/2/2 48/4/4
f 63/9/9 54/11/11 21/10/10
f 63/9/9 21/10/10 45/12/12
f 62/13/13 55/15/15 27/14/14
f 62/13/13 27/14/14 46/16/16
f 23/17/17 29/19/17 31/18/17
f 23/17/17 31/18/17 25/20/17
f 61/21/18 50/23/20 26/22/19
f 61/21/18 26/22/19 47/24/21
f 21/10/10 37/34/31 22/33/30
f 21/10/10 22/33/30 23/35/32
f 24/36/33 25/38/35 26/37/34
f 24/36/33 26/37/34 38/39/36
f 30/44/40 31/46/42 32/45/41
f 30/44/40 32/45/41 40/47/43
f 21/10/10 23/35/32 25/38/35
f 25/38/35 24/36/33 45/12/12
f 25/38/35 45/12/12 21/10/10
f 23/48/44 22/49/45 46/16/16
f 46/16/16 27/14/14 29/50/44
f 46/16/16 29/50/44 23/48/44
f 26/22/19 25/51/46 31/46/42
f 31/46/42 30/44/40 47/24/21
f 31/46/42 47/24/21 26/22/19
f 32/2/2 31/52/47 29/43/39
f 29/43/39 28/41/38 48/4/4
f 29/43/39 48/4/4 32/2/2
f 60/53/48 38/39/36 26/37/34
f 60/53/48 26/37/34 50/54/49
f 59/55/50 35/57/51 17/56/50
f 59/55/50 17/56/50 52/58/52
f 58/59/53 37/60/54 21/33/54
f 58/59/53 21/33/54 54/61/54
f 57/62/55 36/64/57 19/63/56
f 57/62/55 19/63/56 56/65/58
f 39/66/59 57/62/55 56/65/58
f 39/66/59 56/65/58 28/67/59
f 27/14/14 55/15/15 57/62/55
f 27/14/14 57/62/55 39/66/59
f 55/68/60 20/70/61 36/69/60
f 55/68/60 36/69/60 57/71/62
f 33/72/63 58/73/64 54/11/11
f 33/72/63 54/11/11 14/74/65
f 13/75/66 53/76/67 58/59/53
f 13/75/66 58/59/53 33/77/68
f 53/76/67 22/49/45 37/60/54
f 53/76/67 37/60/54 58/59/53
f 40/47/43 59/79/70 52/78/69
f 40/47/43 52/78/69 30/44/40
f 32/45/41 51/80/71 59/79/70
f 32/45/41 59/79/70 40/47/43
f 51/80/71 18/82/73 35/81/72
f 51/80/71 35/81/72 59/79/70
f 34/83/74 60/53/48 50/54/49
f 34/83/74 50/54/49 16/84/75
f 15/85/76 49/87/77 60/86/76
f 15/85/76 60/86/76 34/88/78
f 49/89/79 24/36/33 38/39/36
f 49/89/79 38/39/36 60/53/48
f 52/78/69 61/21/18 47/24/21
f 52/78/69 47/24/21 30/44/40
f 17/90/80 43/91/80 61/21/18
f 17/90/80 61/21/18 52/78/69
f 43/91/80 16/92/80 50/23/20
f 43/91/80 50/23/20 61/21/18
f 53/76/67 62/13/13 46/16/16
f 53/76/67 46/16/16 22/49/45
f 13/75/66 42/93/81 62/13/13
f 13/75/66 62/13/13 53/76/67
f 42/93/81 20/94/81 55/15/15
f 42/93/81 55/15/15 62/13/13
f 49/89/79 63/9/9 45/12/12
f 49/89/79 45/12/12 24/36/33
f 15/95/82 41/96/82 63/9/9
f 15/95/82 63/9/9 49/89/79
f 41/96/82 14/74/65 54/11/11
f 41/96/82 54/11/11 63/9/9
f 56/97/83 64/1/1 48/4/4
f 56/97/83 48/4/4 28/41/38
f 19/98/84 44/99/84 64/1/1
f 19/98/84 64/1/1 56/97/83
f 44/99/84 18/100/84 51/3/3
f 44/99/84 51/3/3 64/1/1
usemtl Materialclay
g Group
s off
f 2/5/5 6/7/7 9/6/6
f 2/5/5 9/6/6 11/8/8
f 1/25/22 2/5/5 3/26/23
f 4/27/24 5/28/25 6/7/7
f 7/29/26 8/30/27 9/6/6
f 10/31/28 11/8/8 12/32/29
f 1/25/22 4/27/24 6/7/7
f 1/25/22 6/7/7 2/5/5
f 2/5/5 11/8/8 10/31/28
f 2/5/5 10/31/28 3/26/23
f 5/28/25 7/29/26 9/6/6
f 5/28/25 9/6/6 6/7/7
f 8/30/27 12/32/29 11/8/8
f 8/30/27 11/8/8 9/6/6
usemtl Materialgras.000
g Group
s off
f 27/40/37 39/42/31 28/41/38
f 27/40/37 28/41/38 29/43/39
