# Wavefront OBJ
# Created by fragMOTION 1.3.7
# http://www.fragmosoft.com

mtllib cube_with_top2001.mtl
# 72 vertices
v 0.970001 0.97 -0.999999
v -0.97 -0.97 -1
v 0.97 -0.97 -1
v -0.97 0.97 -1
v -1 1.05675 0
v -1 1.0835 0.97
v -1 1.05675 0.97
v -1 1.0835 0
v 0.97 -1 -0.97
v -0.97 -1 0.97
v 0.97 -1 0.97
v -0.97 -1 -0.97
v -1 -0.97 0.97
v -1 0.97 -0.97
v -1 0.97 0.97
v -1 -0.97 -0.97
v 1 1.05675 1e-006
v 1 1.0835 -0.969999
v 1 1.05675 -0.969999
v 1 1.0835 1e-006
v 0.97 -0.97 1
v -0.97 0.97 1
v 0.969999 0.97 1
v -0.97 -0.97 1
v 0 1.05675 -1
v -0.97 1.0835 -1
v -0.97 1.05675 -1
v 0 1.0835 -1
v 0.970001 1.1135 -0.969999
v -0.97 1.1135 0.97
v -0.97 1.1135 -0.97
v 0.969999 1.1135 0.970001
v -1e-006 1.05675 1
v 0.969999 1.0835 1
v 0.969999 1.05675 1
v 0 1.0835 1
v 1 -0.97 -0.97
v 1 -0.97 0.97
v 1 0.97 -0.969999
v 0.970001 1.03 -0.980339
v 0.976149 1.03 -0.977196
v 0.98 1.03 -0.969999
v 0.969999 1.03 0.980001
v 0.999999 0.97 0.970001
v 0.974864 1.03 0.975001
v 0.979999 1.03 0.970001
v -0.98 1.03 0.97
v -0.972209 1.03 0.975
v -0.97 1.03 0.98
v -0.98 1.03 -0.97
v -0.97 1.03 -0.980339
v -0.975 1.03 -0.97287
v 0.970001 1.0835 -0.999999
v 0.985 1.0835 -0.984999
v 0.999999 1.0835 0.970001
v 0.984999 1.0835 0.985001
v -1 1.0835 -0.97
v -0.985 1.0835 -0.985
v -0.97 1.0835 1
v -0.985 1.0835 0.985
v 0.98 1.03 1e-006
v 0 1.03 -0.980339
v -1e-006 1.03 0.98
v -0.98 1.03 0
v 0.984999 1.05675 0.985001
v -0.985 1.05675 0.985
v -0.97 1.05675 1
v 0.985 1.05675 -0.984999
v -0.985 1.05675 -0.985
v -1 1.05675 -0.97
v 0.970001 1.05675 -0.999999
v 0.999999 1.05675 0.970001
# 124 texture vertices
vt 0.340034 -0.992233
vt 0.335008 -0.992809
vt 0.337521 -0.992521
vt 0.664992 -0.992233
vt 0.667504 -0.992521
vt 0.670017 -0.992809
vt 0.329983 -0.492789
vt 0.324958 -0.492213
vt 0.327471 -0.492501
vt 0.340034 -0.007807
vt 0.337521 -0.007519
vt 0.335008 -0.007231
vt 0.324958 -0.479773
vt 0.32669 -0.479965
vt 0.325439 -0.479869
vt 0.329983 -0.965033
vt 0.005025 -0.49998
vt 0.329983 -0.49998
vt 0.005025 -0.965033
vt 0.670017 -0.492806
vt 0.994975 -0.026311
vt 0.994975 -0.492806
vt 0.670017 -0.026311
vt 0 0
vt 0.324958 -0.465007
vt 0 -0.465007
vt 0.324958 0
vt 0.664992 -0.50002
vt 0.340034 -0.035013
vt 0.664992 -0.035013
vt 0.340034 -0.50002
vt 0.670017 -0.50002
vt 0.664992 -0.492806
vt 0.994975 -0.50002
vt 1 -0.492806
vt 1 -0.026311
vt 0.994975 -0.019097
vt 0.664992 -0.026311
vt 0.670017 -0.019097
vt 0.340034 -0.965027
vt 0.338302 -0.979985
vt 0.335008 -0.965603
vt 0.338828 -0.979867
vt 0.340034 -0.979793
vt 0.666667 -0.979985
vt 0.664992 -0.965027
vt 0.670017 -0.965603
vt 0.665829 -0.979892
vt 0.664992 -0.979793
vt 0.338358 -0.020056
vt 0.335008 -0.034437
vt 0.339664 -0.020152
vt 0.340034 -0.020248
vt 0.329983 -0.465583
vt 0.335008 -0.500547
vt 0.670017 -0.500596
vt 0.335008 -0.499444
vt 0 -0.500547
vt 0 -0.9656
vt 0.502513 -0.979793
vt 0.329983 -0.979788
vt 0.167504 -0.979788
vt 0.005025 -0.979787
vt 0.502513 -0.020248
vt 0.664992 -0.020248
vt 0.162479 -0.479773
vt 0 -0.479773
vt 0.162479 -0.485801
vt 0 -0.492213
vt 0 -0.485801
vt 0.162479 -0.492213
vt 0.502513 -0.985821
vt 0.340034 -0.985821
vt 0.502513 -0.992233
vt 0.167504 -0.985829
vt 0.005025 -0.992241
vt 0.005025 -0.985829
vt 0.167504 -0.992242
vt 0.670017 -0.533504
vt 0.994975 -1
vt 0.670017 -1
vt 0.994975 -0.533504
vt 0.502513 -0.014219
vt 0.664992 -0.007807
vt 0.664992 -0.01422
vt 0.502513 -0.007807
vt 0.340034 -1
vt 0.664992 -1
vt 0.324958 -0.49998
vt 0.340034 -4.1e-005
vt 0.329983 -1
vt 0.329983 -0.992242
vt 0.005025 -1
vt 0.664992 -4.1e-005
vt 0 -0.499979
vt 0.667504 -0.986109
vt 0.670017 -0.986397
vt 0.331229 -0.493604
vt 0.333119 -0.499224
vt 0.332466 -0.49998
vt 0.333119 -0.491209
vt 0.332496 -0.986112
vt 0.332496 -0.992525
vt 0.335008 -0.986396
vt 0.002513 -0.986112
vt 0.00335 -0.979983
vt 0.004188 -0.979929
vt 0 -0.986396
vt 0.002513 -0.992525
vt 0 -0.992808
vt 0.329983 -0.486377
vt 0.327471 -0.486089
vt 0.337521 -0.986109
vt 0.329983 -0.985829
vt 0.331013 -0.979847
vt 0.340034 -0.014219
vt 0.337521 -0.013932
vt 0.335008 -0.013644
vt 0.335008 -0.499162
vt 0.333119 -0.493541
vt 0.335008 -0.491147
vt 0.33436 -0.49998
vt 0.664992 -0.985821
vt 0.324958 -0.485801
# 110 normals
vn 0.890816 0.444466 0.094325
vn 0.627963 0.627963 0.459701
vn 0 0 1
vn 0.75218 0.322956 0.57439
vn 0.562097 0 0.827072
vn 0.547143 0.158616 0.821873
vn -0.627963 0.627963 0.459701
vn -0.860547 0.48385 0.159211
vn -0.29289 0.29289 0.910182
vn -0.562097 0 0.827072
vn -0.547143 0.158616 0.821873
vn -0.936098 0.135485 -0.3246
vn -0.709296 0.407079 -0.575487
vn -0.773259 0.065393 -0.630709
vn 0.189162 0.0833 -0.978406
vn -0.252725 0 -0.967538
vn 0.50545 0 -0.862856
vn -0.255682 0.16889 -0.951894
vn 0.244078 -0.892863 -0.378446
vn -0.244078 -0.892863 0.378446
vn 0.453374 -0.841993 0.292403
vn -0.453374 -0.841993 -0.292403
vn -1 0 0
vn -0.972271 0.18274 -0.145927
vn -0.976994 0.213265 0
vn -0.391134 0.181957 0.902167
vn 0 0.213264 0.976995
vn -0.505449 0 0.862856
vn 0.692703 -0.692703 -0.200813
vn 0.302906 -0.673887 -0.673887
vn 0.673887 -0.673887 0.302905
vn 0.200813 -0.692703 0.692703
vn -0.302905 -0.673887 0.673887
vn -0.692703 -0.692703 0.200813
vn -0.200813 -0.692703 -0.692703
vn -0.673887 -0.673887 -0.302906
vn 0.900105 0.223661 -0.373882
vn 0.580015 0.1521 -0.80028
vn 0.688857 0.225723 -0.688857
vn 0.737689 -0.164234 -0.65486
vn 0.956974 -0.158253 -0.243221
vn 0.713451 0.000875 0.700705
vn 0.908322 0.180296 0.377419
vn 0.705011 0.076929 0.705011
vn 0.703866 -0.125582 0.699143
vn 0.9588 -0.194389 0.207161
vn -0.599168 0.059525 0.798407
vn -0.705011 0.076929 0.705011
vn -0.693608 -0.121628 0.71001
vn -0.285414 -0.235451 0.929033
vn -0.694577 0.225774 -0.683074
vn 0.707107 0 -0.707107
vn 0.862856 0 0.505449
vn 0.707107 0 0.707107
vn -0.707107 0 0.707107
vn -0.707107 0 -0.707107
vn 0.987209 -0.159432 1e-006
vn 0.199228 -0.266459 -0.943031
vn 0 -0.258163 -0.966101
vn 0 -0.157907 -0.987454
vn 0 -0.159432 0.987209
vn -0.987209 -0.159432 0
vn 1 0 0
vn -0.948924 -0.315506 0
vn -0.92388 0.382683 0
vn -0.908394 -0.418115 0
vn -0.95232 0.305101 0
vn 0.948924 -0.315506 1e-006
vn 0.857633 -0.462881 -0.224068
vn 0.95232 0.305101 1e-006
vn 0 -0.311619 -0.950207
vn -0.320377 0.160189 -0.933648
vn -0.196749 -0.329557 -0.923408
vn 0 0.382684 -0.923879
vn 0 1 0
vn 0 -0.315506 0.948924
vn 0 0.382683 0.92388
vn 0 -0.418115 0.908394
vn 0 0.305102 0.95232
vn 0.673887 0.673887 -0.302905
vn 0.699152 0.699152 0.149576
vn -0.699152 0.699152 -0.149576
vn -0.149576 0.699152 0.699152
vn 0 0.707107 -0.707107
vn 0.270598 0.270598 -0.92388
vn 0 0.707107 0.707107
vn -0.707107 0.707107 0
vn 0.701986 -0.120129 0.701986
vn 0.673106 -0.318992 0.667212
vn -0.716213 -0.493774 0.493179
vn -0.788387 -0.507147 0.348207
vn -0.625129 -0.467363 0.625129
vn 0.65365 -0.173373 -0.73667
vn -0.658758 -0.200843 -0.725052
vn -0.531568 -0.487674 -0.692538
vn -0.430719 -0.501299 -0.750453
vn -0.698001 -0.159963 -0.698001
vn -0.694165 -0.444473 -0.566196
vn -0.610351 -0.504919 -0.610351
vn 0.647166 -0.402929 -0.647166
vn 0.380601 -0.196361 -0.903651
vn 0.421123 -0.379642 -0.823728
vn -0.315238 -0.133473 0.93958
vn -0.700861 -0.132624 0.700861
vn -0.623397 -0.306078 0.719509
vn 0.62049 -0.468573 0.628833
vn 0.625129 -0.467363 0.625129
vn 0.615828 -0.469766 0.632515
vn 0.93958 -0.133473 0.315238
vn -0.977903 -0.209058 0
usemtl Materialgras
g Group
s off
f 18/1/1 54/3/3 53/2/2
f 55/4/4 34/6/6 56/5/5
f 26/7/7 58/9/3 57/8/8
f 59/10/9 6/12/11 60/11/10
usemtl Materialclay
g Group
s off
f 50/13/12 52/15/14 51/14/13
usemtl Clay
g Group
s off
f 1/16/15 3/18/17 2/17/16
f 1/16/15 2/17/16 4/19/18
f 9/20/19 11/22/21 10/21/20
f 9/20/19 10/21/20 12/23/22
f 13/24/23 15/26/25 14/25/24
f 13/24/23 14/25/24 16/27/23
f 21/28/3 23/30/27 22/29/26
f 21/28/3 22/29/26 24/31/28
f 37/32/29 9/20/19 3/33/30
f 38/34/31 21/35/32 11/22/21
f 24/36/33 13/37/34 10/21/20
f 2/38/35 12/23/22 16/39/36
f 39/40/37 1/42/39 40/41/38
f 41/43/40 42/44/41 39/40/37
f 40/41/38 41/43/40 39/40/37
f 43/45/42 23/47/44 44/46/43
f 44/46/43 46/49/46 45/48/45
f 44/46/43 45/48/45 43/45/42
f 47/50/47 15/51/48 22/29/26
f 22/29/26 49/53/50 48/52/49
f 22/29/26 48/52/49 47/50/47
f 4/54/51 14/25/24 50/13/12
f 50/13/12 51/14/13 4/54/51
f 37/32/29 38/34/31 11/22/21
f 37/32/29 11/22/21 9/20/19
f 9/20/19 12/23/22 2/38/35
f 9/20/19 2/38/35 3/33/30
f 39/42/52 37/55/52 3/18/17
f 39/42/52 3/18/17 1/16/15
f 21/35/32 24/36/33 10/21/20
f 21/35/32 10/21/20 11/22/21
f 38/28/53 44/46/43 23/47/44
f 38/28/53 23/47/44 21/56/54
f 13/37/34 16/39/36 12/23/22
f 13/37/34 12/23/22 10/21/20
f 24/31/28 22/29/26 15/51/48
f 24/31/28 15/51/48 13/57/55
f 16/58/56 14/59/56 4/19/18
f 16/58/56 4/19/18 2/17/16
f 39/40/37 42/44/41 61/60/57
f 61/60/57 46/49/46 44/46/43
f 61/60/57 44/46/43 39/40/37
f 40/61/58 1/16/15 4/19/18
f 4/19/18 51/63/60 62/62/59
f 4/19/18 62/62/59 40/61/58
f 23/30/27 43/65/61 63/64/61
f 63/64/61 49/53/50 22/29/26
f 63/64/61 22/29/26 23/30/27
f 15/26/25 47/67/62 64/66/62
f 64/66/62 50/13/12 14/25/24
f 64/66/62 14/25/24 15/26/25
f 37/31/63 39/40/37 44/46/43
f 37/31/63 44/46/43 38/28/53
usemtl Grass3
g Group
s off
f 5/68/64 7/70/66 6/69/65
f 5/68/64 6/69/65 8/71/67
f 17/72/68 19/73/69 18/1/1
f 17/72/68 18/1/1 20/74/70
f 25/75/71 27/77/73 26/76/72
f 25/75/71 26/76/72 28/78/74
f 29/79/75 31/81/75 30/80/75
f 29/79/75 30/80/75 32/82/75
f 33/83/76 35/85/78 34/84/77
f 33/83/76 34/84/77 36/86/79
f 18/1/1 53/2/2 29/87/80
f 55/4/4 32/88/81 34/6/6
f 26/7/7 57/8/8 31/89/82
f 59/10/9 30/90/83 6/12/11
f 18/1/1 29/87/80 32/88/81
f 32/88/81 55/4/4 20/74/70
f 32/88/81 20/74/70 18/1/1
f 29/91/84 53/92/85 28/78/74
f 28/78/74 26/76/72 31/93/84
f 28/78/74 31/93/84 29/91/84
f 34/84/77 32/94/86 30/90/83
f 30/90/83 59/10/9 36/86/79
f 30/90/83 36/86/79 34/84/77
f 6/69/65 30/95/87 31/89/82
f 31/89/82 57/8/8 8/71/67
f 31/89/82 8/71/67 6/69/65
f 65/96/88 56/5/5 34/6/6
f 65/96/88 34/6/6 35/97/89
f 66/98/90 48/100/91 49/99/90
f 66/98/90 49/99/90 67/101/92
f 68/102/93 54/103/52 18/2/52
f 68/102/93 18/2/52 19/104/52
f 69/105/94 52/107/96 50/106/95
f 69/105/94 50/106/95 70/108/97
f 58/109/56 69/105/94 70/108/97
f 58/109/56 70/108/97 57/110/56
f 26/76/72 27/77/73 69/105/94
f 26/76/72 69/105/94 58/109/56
f 27/111/98 51/14/13 52/15/14
f 27/111/98 52/15/14 69/112/99
f 41/43/40 68/113/100 19/73/69
f 41/43/40 19/73/69 42/44/41
f 40/61/58 71/114/101 68/102/93
f 40/61/58 68/102/93 41/115/102
f 71/114/101 53/92/85 54/103/52
f 71/114/101 54/103/52 68/102/93
f 60/11/10 66/117/104 67/116/103
f 60/11/10 67/116/103 59/10/9
f 6/12/11 7/118/105 66/117/104
f 6/12/11 66/117/104 60/11/10
f 7/118/105 47/50/47 48/52/49
f 7/118/105 48/52/49 66/117/104
f 45/48/45 65/96/88 35/97/89
f 45/48/45 35/97/89 43/45/42
f 46/119/106 72/121/107 65/120/106
f 46/119/106 65/120/106 45/122/108
f 72/123/109 55/4/4 56/5/5
f 72/123/109 56/5/5 65/96/88
f 67/116/103 33/83/76 36/86/79
f 67/116/103 36/86/79 59/10/9
f 49/53/50 63/64/61 33/83/76
f 49/53/50 33/83/76 67/116/103
f 63/64/61 43/65/61 35/85/78
f 63/64/61 35/85/78 33/83/76
f 71/114/101 25/75/71 28/78/74
f 71/114/101 28/78/74 53/92/85
f 40/61/58 62/62/59 25/75/71
f 40/61/58 25/75/71 71/114/101
f 62/62/59 51/63/60 27/77/73
f 62/62/59 27/77/73 25/75/71
f 72/123/109 17/72/68 20/74/70
f 72/123/109 20/74/70 55/4/4
f 46/49/46 61/60/57 17/72/68
f 46/49/46 17/72/68 72/123/109
f 61/60/57 42/44/41 19/73/69
f 61/60/57 19/73/69 17/72/68
f 70/124/110 5/68/64 8/71/67
f 70/124/110 8/71/67 57/8/8
f 50/13/12 64/66/62 5/68/64
f 50/13/12 5/68/64 70/124/110
f 64/66/62 47/67/62 7/70/66
f 64/66/62 7/70/66 5/68/64
